# xmcd
#
# Track frame offsets:
#	150
#	15542
#	34095
#	52937
#	72410
#	88980
#	113090
#	130772
#	145780
#	162292
#	179407
#	196570
#	218425
#	235555
#
# Disc length: 3445 seconds
# Revision: 0
# Processed by: cddbd v1.5.2PL0 Copyright (c) Steve Scherf et al.
# Submitted via: dBpowerAMP V12.0
#
DISCID=b10d730e
DTITLE=Festival - MusiVale
DYEAR=1995
DGENRE=Brazil
TTITLE0=Tempo Certo Pra Viver (Banda Cinzas)
TTITLE1=Deixa O Amor Me Levar (Otávio Segala e Clóvis Itaqui)
TTITLE2=Nossos Passos (Dinastia)
TTITLE3=Sem Destino (Daniel Orlandini)
TTITLE4=Páginas Não Lidas (Doidivanas)
TTITLE5=Teu Tesouro (Cristiana Pretto)
TTITLE6=Raça (Marcello Seffrin)
TTITLE7=Só Você (Banda Studio)
TTITLE8=Mil Sonhos (Marco Aurélio e Grupo Enigma)
TTITLE9=Tão Diferente (Marcos Willian)
TTITLE10=Nada Original (Saulo Poll)
TTITLE11=Vou Rever Meu Xodó (Herêh)
TTITLE12=Coisas Da Vida (Banda Teto Preto)
TTITLE13=A Fome (Carmem Vera)
EXTD=
EXTT0=
EXTT1=
EXTT2=
EXTT3=
EXTT4=
EXTT5=
EXTT6=
EXTT7=
EXTT8=
EXTT9=
EXTT10=
EXTT11=
EXTT12=
EXTT13=
PLAYORDER=
